<svg width="451" height="483" viewBox="0 0 451 483" fill="none" xmlns="http://www.w3.org/2000/svg">
<path fill-rule="evenodd" clip-rule="evenodd" d="M440.9 227.194C439.7 345.694 340.3 443.694 221 441.694C104.2 439.794 8.59999 342.794 8.19999 225.694C7.79999 108.494 102.6 11.6936 217.9 8.09362C339 4.49362 442.2 105.194 440.9 227.194Z" stroke="#BE2026" stroke-width="15" stroke-miterlimit="10"/>
<path fill-rule="evenodd" clip-rule="evenodd" d="M275.6 96.0934C313.7 96.0934 351.9 96.0934 390 96.0934L386.2 91.3934C395.4 93.0934 403 93.5934 408.3 93.6934C413.8 93.7934 416.5 93.5934 430.6 93.6934C432.7 93.6934 436.5 93.7934 441.5 93.8934C445 93.9934 447.9 94.1934 450.1 94.2934C447.4 99.1934 443.2 106.793 437.7 116.093C433.9 122.693 432.6 124.593 431 127.893C428 133.793 424.1 142.593 421.5 154.693C425.2 170.893 429.6 199.693 422.8 234.593C415.7 270.693 400 296.493 390.2 309.993C381.8 321.593 368.5 337.193 348.8 351.693C332 363.993 315.9 371.393 303.7 375.993C306.3 362.493 308.9 349.093 311.5 335.593C307.3 342.493 301 352.993 293.3 365.893C283.9 381.693 284.6 380.893 276.6 394.393C262.5 418.193 260 421.393 253.5 433.693C248.4 443.293 248.5 444.093 243.6 453.193C236.7 465.993 230.3 475.993 225.9 482.693C221.3 474.293 216 465.493 209.9 456.293C204.5 448.093 199 440.493 193.7 433.593C178.7 429.293 157.5 421.193 135.6 405.693C103.8 383.193 86.3 356.093 77.7 340.293C70.8 327.493 62.1 307.693 57.8 281.993C53.5 255.993 55.4 234.193 57.8 219.793C68.1 228.493 78.4 237.293 88.7 245.993L1 93.9934L42.1 93.5934L64.5 91.5934C74.5 82.6934 88.2 72.1934 106 62.7934C120.9 54.8934 134.8 49.8934 146.2 46.6934C159 43.2934 176 40.1934 196.2 40.2934C223.7 40.3934 246.1 46.2934 260.9 51.5934C270.5 54.9934 281.8 59.8934 293.8 67.1934C302 72.1934 309 77.2934 314.8 82.1934C301.6 86.8934 288.6 91.4934 275.6 96.0934Z" fill="black"/>
<path d="M29.7002 113.742L68.2002 180.542L87.3002 147.042H185.7V384.142L218.7 441.242L219 113.742H29.7002Z" fill="white" stroke="black" stroke-miterlimit="10"/>
<path fill-rule="evenodd" clip-rule="evenodd" d="M232 113.742H421.4L381.1 183.742L342.9 183.242L363.1 148.242L265.4 147.142V200.442H371.3C325.3 280.142 279.3 359.742 233.3 439.442C233.4 376.142 233.6 312.942 233.7 249.642C244.3 249.942 254.8 250.142 265.4 250.442C265.4 272.742 265.4 295.142 265.4 317.442C281.4 289.642 297.4 261.842 313.4 234.042C286.1 233.142 258.8 232.342 231.5 231.442L232 113.742Z" fill="url(#paint0_linear_53_7)"/>
<path d="M217.309 114L421.39 113.742L410.662 130.806L217.309 129.359V114Z" fill="#FFFCFC" stroke="white"/>
<line x1="216.285" y1="113.553" x2="421.4" y2="113.242" stroke="black"/>
<path d="M86.3249 147.03L68.0724 179.283L49.5472 146.273L86.3249 147.03Z" fill="#B21E23" stroke="#B01D23"/>
<defs>
<linearGradient id="paint0_linear_53_7" x1="326.45" y1="113.742" x2="231.5" y2="402.029" gradientUnits="userSpaceOnUse">
<stop stop-color="#BE2026"/>
<stop offset="1" stop-color="#4A080B"/>
</linearGradient>
</defs>
</svg>
